<svg xmlns="http://www.w3.org/2000/svg" version="1.1" xmlns:xlink="http://www.w3.org/1999/xlink" xmlns:svgjs="http://svgjs.dev/svgjs" width="100%" height="100%" viewBox="0 0 1000 600"><rect width="1000" height="600" x="0" y="0" fill="#00000"/><g><rect width="333.3333333333333" height="333.3333333333333" rx="13.333333333333334" ry="13.333333333333334" y="219.90484584140776" fill="#000000" transform="matrix(0.6323267153097165,0,0,0.6323267153097165,0,55.56050967667478)" x="197.6826171875"/><path d="M357.0824238110542 376.7687533721215L357.0824238110542 376.7687533721215Q377.887729686152 376.7687533721215 395.5572424083844 377.15050210377467L395.5572424083844 377.15050210377467Q404.80101526770045 339.8481974679506 413.6357716288167 325.3144778985835L413.6357716288167 325.3144778985835Q419.5256092028942 316.88873803566713 425.41544677697163 313.1530540187754L425.41544677697163 313.1530540187754Q427.760474699984 311.5715235590694 430.21457368918294 311.5715235590694Q432.6686726783819 311.5715235590694 432.6686726783819 319.23376595867944Q432.6686726783819 326.8960083582895 431.3870876506891 335.3217482212059Q430.13277038954294 343.77475585066895 428.1694911981838 354.76366576897095L428.1694911981838 354.76366576897095Q421.67976276007994 390.8934564432888 418.43489854102796 412.48952754823955Q415.19003432197604 434.08559865319035 415.19003432197604 454.1001392984351L415.19003432197604 454.1001392984351Q415.19003432197604 459.6082281408594 407.3369175565394 459.6082281408594L407.3369175565394 459.6082281408594Q394.9846193109047 459.6082281408594 390.45817006415996 454.8091012286481Q385.95898858396185 449.9827065498902 385.95898858396185 437.33046287224226Q385.95898858396185 424.6509514280477 391.05806092818636 397.3831848813927L391.05806092818636 397.3831848813927Q369.46198982323557 396.4015452857131 363.7630266149847 396.4015452857131L363.7630266149847 396.4015452857131L355.7190354837215 396.4015452857131Q353.56488192653575 396.4015452857131 351.3834606028033 396.5924196515397L351.3834606028033 396.5924196515397Q342.5487042416871 430.3499146362986 342.5487042416871 449.9827065498902L342.5487042416871 449.9827065498902Q342.5487042416871 461.5715073322186 319.97099354105677 461.5715073322186L319.97099354105677 461.5715073322186Q315.06279556265883 461.5715073322186 314.1902270331659 456.55423828763406Q313.31765850367293 451.5642370095962 313.31765850367293 440.275381659281Q313.31765850367293 428.98652630896584 320.3800100392566 399.728212804405L320.3800100392566 399.728212804405Q308.409460525275 401.5006176299376 302.9013716828507 401.5006176299376L302.9013716828507 401.5006176299376Q300.33820162746514 401.5006176299376 300.33820162746514 399.53733843857844L300.33820162746514 399.53733843857844Q300.33820162746514 395.2017635576603 306.7188589993824 389.72094248178263Q313.09951637129967 384.21285363935834 325.47908238348106 380.8861861206664L325.47908238348106 380.8861861206664Q332.7323082848913 355.7453053646505 340.0128019528482 339.65732310212405L340.0128019528482 339.65732310212405Q318.7984795795506 340.03907183377726 308.7912092569282 347.89218859921385L308.7912092569282 347.89218859921385Q305.65541610406285 350.26448428877285 303.69213691270375 352.1186924139454Q301.7288577213445 353.9729005391179 300.2563983278252 353.9729005391179Q298.7839389343058 353.9729005391179 297.3932828404264 351.6278726161056Q296.02989451309367 349.2828446930933 296.02989451309367 345.35628631037497L296.02989451309367 345.35628631037497Q296.02989451309367 331.0134411068344 320.18913567343 323.5420730730509L320.18913567343 323.5420730730509Q339.4129110888218 317.6522354989735 364.93554057649084 317.46136113314685L364.93554057649084 317.46136113314685L365.34455707469067 317.46136113314685Q366.7079454020234 317.46136113314685 369.16204439122237 319.04289159285287Q371.61614338042136 320.5971542860122 371.61614338042136 324.1419639370773Q371.61614338042136 327.6867735881425 370.33455835272855 332.1041517687006Q369.05297332503574 336.5215299492587 366.89881976785 338.67568350644444L366.89881976785 338.67568350644444Q365.7263058063439 347.89218859921385 357.0824238110542 376.7687533721215Z " fill="#ffffff" transform="matrix(0.6323267153097165,0,0,0.6323267153097165,0,55.56050967667478)"/><path d="M661.0964047375198 371.9150137135975L661.0964047375198 371.9150137135975Q661.0964047375198 366.6278939258985 654.8498462238679 366.6278939258985Q648.6032877102157 366.6278939258985 642.5608650957026 376.24269477534335Q636.5388560711033 385.87790921470213 635.0690775973028 395.86015468259717L635.0690775973028 395.86015468259717Q635.3752814460113 399.24881060830387 635.6610717048059 402.63746653401057Q635.9468619636003 406.00570886980336 635.9468619636003 409.25146966611277L635.9468619636003 409.25146966611277Q635.9468619636003 417.0290474233071 630.8026373052986 419.82570924151076L630.8026373052986 419.82570924151076Q628.4550744652006 421.15259258591396 626.3320611141555 422.3161672110061Q624.1886341731964 423.500155426012 621.4123859449066 423.500155426012Q618.6157241267028 423.500155426012 616.4722971857439 419.7440548818552Q614.3492838346987 416.00836792761226 614.3492838346987 408.0674814511068L614.3492838346987 408.0674814511068Q614.3492838346987 385.87790921470213 617.5746310410941 369.56745087349947L617.5746310410941 369.56745087349947Q622.5759605699986 344.2750129701827 637.4166404374009 315.47143760167575L637.4166404374009 315.47143760167575Q639.4784130187043 311.51120115838 643.459063051914 311.57244192812163Q647.4192994952098 311.65409628777724 649.9097574647051 317.0841112048735Q652.4206290241143 322.53453971188367 652.3389746644586 326.2089858963849Q652.2777338947169 329.8834320808861 651.1754000393667 333.3333287763345Q650.0730661840162 336.7832254717829 648.3787382211628 340.090227037834Q646.6844102583095 343.39722860388514 644.5613969072643 346.8471252993335Q642.4179699663052 350.29702199478186 640.3561973850019 354.27767202799157L640.3561973850019 354.27767202799157L638.1515296743012 364.85191160338957Q643.8877484401057 355.29835152368634 653.5842036492063 352.07300431729084L653.5842036492063 352.07300431729084Q657.1157547043102 350.88901610228487 661.3821949963144 350.88901610228487L661.3821949963144 350.88901610228487Q671.3848540541234 350.88901610228487 676.5290787124251 355.38000588334194Q681.6733033707269 359.8505820744851 681.6733033707269 368.0160180400434Q681.6733033707269 376.18145400560167 679.5298764297677 384.55102587029893Q677.4068630787226 392.9205977349962 676.4474243527695 396.5338031497557Q675.4879856268165 400.1265949746014 675.4879856268165 402.47415781469937Q675.4879856268165 404.8421342447113 677.1006592300141 404.8421342447113L677.1006592300141 404.8421342447113Q679.3053269407148 404.8421342447113 682.5510877370243 402.0454724265076Q685.7764349434199 399.24881060830387 689.0221957397293 395.94180904225277Q692.2475429461249 392.6348074762016 694.9625504046729 389.8381456579979Q697.6775578632211 387.04148383979424 698.7186509488297 387.04148383979424L698.7186509488297 387.04148383979424Q700.7804235301332 387.04148383979424 700.7804235301332 392.04281336869866L700.7804235301332 392.04281336869866Q700.7804235301332 402.33126268530214 690.634869342927 411.88482276500537L690.634869342927 411.88482276500537Q673.5895217648241 421.88748182281427 668.8739824947143 421.88748182281427L668.8739824947143 421.88748182281427Q668.4452971065224 421.88748182281427 668.2819883872112 421.744586693417L668.2819883872112 421.744586693417Q656.5237605968073 421.744586693417 656.5237605968073 402.9232567928051L656.5237605968073 402.9232567928051Q656.5237605968073 394.8394751869024 658.0751934302633 388.0825769254029Q659.6266262637193 381.3256786639034 660.3615155006196 378.22281299699125Q661.0964047375198 375.140360919993 661.0964047375198 371.9150137135975ZM752.7942506307395 408.8023706880071L752.7942506307395 408.8023706880071Q741.1993315596469 422.4794759303172 724.9501139881859 422.4794759303172Q708.7008964167248 422.4794759303172 700.617114810822 414.17114483536164Q692.5333332049194 405.86281374040607 692.6966419242306 393.51259184249915L692.6966419242306 393.51259184249915Q692.5333332049194 376.0181452862905 703.7199804777342 363.382133129589Q714.8862141606353 350.7461209728876 732.9522412344329 350.7461209728876L732.9522412344329 350.7461209728876Q741.1993315596469 350.7461209728876 746.1802474986373 352.8078935541911L746.1802474986373 352.8078935541911Q754.856023212043 356.339444609295 754.856023212043 359.4218966862933L754.856023212043 359.4218966862933Q754.856023212043 361.7694595263913 742.7303508031889 361.85111388604685Q730.604678394335 361.91235465578853 722.4596560186906 370.2206857507441Q714.2942200531322 378.5290168456997 714.2942200531322 391.1650290024011L714.2942200531322 391.1650290024011Q714.2942200531322 397.7790321345034 718.1932157266863 402.27002191556045Q722.0922114002403 406.7405981067036 729.2165542801899 406.7405981067036Q736.3408971601395 406.7405981067036 741.0360228403356 403.8010411591026L741.0360228403356 403.8010411591026Q730.604678394335 396.7583526388086 730.604678394335 383.36703765529296L730.604678394335 383.36703765529296Q730.4617832649376 376.32434913499895 735.687662282895 370.5064760095387Q740.8931277109384 364.7090164739923 749.0585636764968 364.6273621143367Q757.203586052141 364.566121344595 760.735137107245 369.11835189539374Q764.266688162349 373.6705824461925 764.266688162349 380.7949253261421Q764.266688162349 387.93968179600563 760.8780322366424 395.86015468259717L760.8780322366424 395.86015468259717L761.7762301928537 395.86015468259717Q768.2269246056449 395.7172595531999 772.9424638757548 391.3079241317984L772.9424638757548 391.3079241317984Q774.6980326083496 389.5523553992034 775.9432615930973 388.22547205480015Q777.2089041677589 386.89858871039695 778.5153739222483 386.89858871039695L778.5153739222483 386.89858871039695Q780.5771465035516 386.89858871039695 780.5771465035516 391.75702310990414L780.5771465035516 391.75702310990414Q780.5771465035516 400.71858908210436 775.2900267158527 405.2095788631614Q770.0029069281536 409.6801550543046 763.6134532851042 409.6801550543046Q757.203586052141 409.6801550543046 752.7942506307395 408.8023706880071ZM751.4877808762503 391.75702310990414L751.4877808762503 391.75702310990414Q753.9782388457456 386.46990332220514 753.9782388457456 381.46857379330066Q753.9782388457456 376.46724426439624 750.7528916393501 376.46724426439624L750.7528916393501 376.46724426439624Q749.4260082949468 376.46724426439624 748.5482239286493 378.3861217163024Q747.6500259724378 380.2845855782947 747.6500259724378 382.0605679008036L747.6500259724378 382.0605679008036Q747.6500259724378 387.93968179600563 751.4877808762503 391.75702310990414ZM806.747368773166 350.09288609564294Q816.5867191116638 350.01123173598734 821.4451535111709 353.76733228014416Q826.2831743207644 357.50301923438707 826.2831743207644 364.48446698493944Q826.2831743207644 371.46591473549176 822.0983883884157 376.38558990474064Q817.9136024560671 381.3256786639034 811.8915934314678 383.36703765529296L811.8915934314678 383.36703765529296Q816.158033723472 387.7763730766945 819.6079304189204 392.3490172174071Q823.0578271143688 396.90124776820585 823.0578271143688 401.9025772971103L823.0578271143688 401.9025772971103Q823.0578271143688 411.7419276356081 815.2598357672605 417.1107017829626Q807.4822580100663 422.4794759303172 793.5806032787034 422.4794759303172Q779.6993621372542 422.4794759303172 772.7995687463574 416.9678066535654Q765.8793617655467 411.4561373768135 765.8793617655467 404.4746896262612Q765.8793617655467 397.49324187570886 769.3292584609951 391.75702310990414Q772.7995687463574 386.0208043440994 776.7598051896532 386.0208043440994L776.7598051896532 386.0208043440994Q779.1073680297511 386.0208043440994 780.1484611153599 387.71513230695274Q781.1691406110547 389.4094602698061 783.9658024292585 397.49324187570886L783.9658024292585 397.49324187570886Q784.9864819249531 400.43279882330984 787.3340447650512 403.0661519222024L787.3340447650512 403.0661519222024Q792.7844732720614 409.0881609468016 804.5427010624653 409.0881609468016L804.5427010624653 409.0881609468016Q802.7667187399563 403.5152509003081 798.8881366563162 399.4733600973567Q794.9891409827621 395.43146929440536 791.1717996688635 391.61412798050685Q787.3340447650512 387.7763730766945 784.3944878174502 383.44869201494856Q781.4549308698492 379.1210109532027 781.4549308698492 373.2418970580007L781.4549308698492 373.2418970580007Q781.4549308698492 362.6472438926888 789.3958173463545 356.0332407605866L789.3958173463545 356.0332407605866Q796.8876048447544 350.1541268653846 806.747368773166 350.09288609564294ZM806.155374665663 377.3450286306937L806.155374665663 377.3450286306937Q812.0344885608652 371.03722934729996 812.0344885608652 367.19947444348753L812.0344885608652 367.19947444348753Q812.0344885608652 365.4439057108925 810.7892595761173 364.05578159674764Q809.5440305913698 362.6472438926888 807.1760541613578 362.6472438926888Q804.8284913212599 362.6472438926888 802.7054779702146 363.2392380001918Q800.5620510292556 363.83123210769475 799.2555812747662 364.11702236648927L799.2555812747662 364.11702236648927Q799.2555812747662 369.71034600289676 806.155374665663 377.3450286306937ZM855.3929535379796 356.62523486808954L855.3929535379796 356.62523486808954Q855.3929535379796 366.4645852065873 851.8614024828755 378.9577022338915L851.8614024828755 378.9577022338915Q852.167606331584 383.6732415040014 852.167606331584 388.0825769254029L852.167606331584 388.0825769254029Q852.4533965903786 397.49324187570886 854.5151691716821 401.0043793408989L854.5151691716821 401.0043793408989Q855.9849476454826 402.9232567928051 858.3325104855805 402.9232567928051L858.3325104855805 402.9232567928051Q862.8847410363794 402.9232567928051 869.6416392978788 396.4521487901001L869.6416392978788 396.4521487901001Q864.4974146395771 384.2652356115044 864.4974146395771 374.40547168309274L864.4974146395771 374.40547168309274Q864.4974146395771 354.27767202799157 883.4616396695862 354.27767202799157L883.4616396695862 354.27767202799157Q889.9327476722913 354.27767202799157 894.2604287340371 358.0133589822345Q898.6085233856968 361.7694595263913 898.6085233856968 367.36278316279873L898.6085233856968 367.36278316279873Q898.6085233856968 379.1210109532027 885.5234122508898 395.57436442380265L885.5234122508898 395.57436442380265Q890.9534271679861 402.0454724265076 894.3420830936927 403.0661519222024L894.3420830936927 403.0661519222024Q899.2005174931999 403.0661519222024 908.8969727023004 385.1430199778019L908.8969727023004 385.1430199778019Q907.1209903797915 378.5290168456997 907.1209903797915 372.79279807989496L907.1209903797915 372.79279807989496Q907.1209903797915 362.36145363389426 910.3667511761009 357.50301923438707L910.3667511761009 357.50301923438707Q914.3269876193967 351.33811508039054 923.5131030806497 351.33811508039054Q932.6992185419028 351.33811508039054 933.8832067569087 358.82990257879027L933.8832067569087 358.82990257879027Q934.1689970157033 361.03457028949106 934.1689970157033 363.5250282589863L934.1689970157033 363.5250282589863Q934.1689970157033 372.93569320929225 923.7376525697025 389.5523553992034L923.7376525697025 389.5523553992034Q927.4120987542037 394.8394751869024 930.6374459605993 395.86015468259717L930.6374459605993 395.86015468259717Q937.4147578120128 395.86015468259717 942.1098834922088 391.3079241317984L942.1098834922088 391.3079241317984Q943.8654522248037 389.69525052860064 945.1310947994652 388.30712641445575Q946.3763237842129 386.89858871039695 947.7032071286162 386.89858871039695L947.7032071286162 386.89858871039695Q949.7445661200056 386.89858871039695 949.7445661200056 391.75702310990414L949.7445661200056 391.75702310990414Q949.7445661200056 400.71858908210436 944.4574463323067 404.9850293741086Q939.1703265446079 409.25146966611277 930.6374459605993 409.25146966611277Q922.1249789665048 409.25146966611277 915.796766093197 401.0043793408989L915.796766093197 401.0043793408989Q908.1620834654 411.00703839870783 903.1607539364957 414.9672748420036L903.1607539364957 414.9672748420036Q894.0562928348982 422.4794759303172 888.9120681765964 422.4794759303172L888.9120681765964 422.4794759303172Q886.4011966171872 422.4794759303172 882.5022009436332 418.27427640805473Q878.623618859993 414.0894904757061 874.7858639561805 407.33259221420656L874.7858639561805 407.33259221420656Q867.7431754358865 413.9465953463088 860.8229684550759 418.213035638313Q853.9231750641791 422.4794759303172 849.228049383983 422.4794759303172L849.228049383983 422.4794759303172Q840.6951687999747 422.4794759303172 834.8160549047727 385.42881023659646L834.8160549047727 385.42881023659646Q832.7542823234692 372.79279807989496 832.7542823234692 368.097672399699L832.7542823234692 368.097672399699Q833.0604861721777 358.3808036006846 835.4080490122756 354.5634622867861L835.4080490122756 354.5634622867861Q838.6333962186711 349.86833660659005 848.0440611689771 349.86833660659005L848.0440611689771 349.86833660659005Q851.5756122240812 349.86833660659005 853.4740760860734 351.99134995763524Q855.3929535379796 354.1347768985943 855.3929535379796 356.62523486808954ZM880.5220827219853 383.08124739649844L880.5220827219853 383.08124739649844Q885.3805171214924 375.5894598980987 885.3805171214924 371.09847011704164Q885.3805171214924 366.6278939258985 882.2980650444943 366.6278939258985L882.2980650444943 366.6278939258985Q880.2362924631907 366.6278939258985 879.7259527153433 368.8938024063409Q879.195199377582 371.18012447669724 879.195199377582 374.85457066119847Q879.195199377582 378.5290168456997 880.5220827219853 383.08124739649844ZM1002.5136960474263 408.8023706880071L1002.5136960474263 408.8023706880071Q990.8983633864195 422.4794759303172 974.6695594048724 422.4794759303172Q958.4203418334114 422.4794759303172 950.3365602275087 414.17114483536164Q942.252778621606 405.86281374040607 942.3956737510032 393.51259184249915L942.3956737510032 393.51259184249915Q942.252778621606 376.0181452862905 953.4190123045071 363.382133129589Q964.6056595773218 350.7461209728876 982.6716866511194 350.7461209728876L982.6716866511194 350.7461209728876Q990.8983633864195 350.7461209728876 995.8996929153241 352.8078935541911L995.8996929153241 352.8078935541911Q1004.5754686287296 356.339444609295 1004.5754686287296 359.4218966862933L1004.5754686287296 359.4218966862933Q1004.5754686287296 361.7694595263913 992.4497962198757 361.85111388604685Q980.3241238110215 361.91235465578853 972.1586878454632 370.2206857507441Q964.013665469819 378.5290168456997 964.013665469819 391.1650290024011L964.013665469819 391.1650290024011Q964.013665469819 397.7790321345034 967.912661143373 402.27002191556045Q971.7912432270132 406.7405981067036 978.9359996968767 406.7405981067036Q986.0603425768263 406.7405981067036 990.7554682570221 403.8010411591026L990.7554682570221 403.8010411591026Q980.3241238110215 396.7583526388086 980.3241238110215 383.36703765529296L980.3241238110215 383.36703765529296Q980.1812286816244 376.32434913499895 985.3866941096676 370.5064760095387Q990.612573127625 364.7090164739923 998.7780090931833 364.6273621143367Q1006.9230314688277 364.566121344595 1010.4545825239318 369.11835189539374Q1013.9861335790356 373.6705824461925 1013.9861335790356 380.7949253261421Q1013.9861335790356 387.93968179600563 1010.597477653329 395.86015468259717L1010.597477653329 395.86015468259717L1011.4752620196266 395.86015468259717Q1017.9463700223314 395.7172595531999 1022.6619092924414 391.3079241317984L1022.6619092924414 391.3079241317984Q1024.4174780250364 389.5523553992034 1025.6627070097838 388.22547205480015Q1026.9079359945317 386.89858871039695 1028.2348193389348 386.89858871039695L1028.2348193389348 386.89858871039695Q1030.2965919202384 386.89858871039695 1030.2965919202384 391.75702310990414L1030.2965919202384 391.75702310990414Q1030.2965919202384 400.71858908210436 1025.0094721325393 405.2095788631614Q1019.7223523448404 409.6801550543046 1013.3124851118771 409.6801550543046Q1006.9230314688277 409.6801550543046 1002.5136960474263 408.8023706880071ZM1001.186812703023 391.75702310990414L1001.186812703023 391.75702310990414Q1003.6976842624322 386.46990332220514 1003.6976842624322 381.46857379330066Q1003.6976842624322 376.46724426439624 1000.4519234661227 376.46724426439624L1000.4519234661227 376.46724426439624Q999.1454537116335 376.46724426439624 998.247255755422 378.3861217163024Q997.3694713891246 380.2845855782947 997.3694713891246 382.0605679008036L997.3694713891246 382.0605679008036Q997.3694713891246 387.93968179600563 1001.186812703023 391.75702310990414ZM1082.3308326107585 408.8023706880071L1082.3308326107585 408.8023706880071Q1070.7154999497518 422.4794759303172 1054.466282378291 422.4794759303172Q1038.2374783967437 422.4794759303172 1030.1536967908412 414.17114483536164Q1022.0699151849383 405.86281374040607 1022.2128103143355 393.51259184249915L1022.2128103143355 393.51259184249915Q1022.0699151849383 376.0181452862905 1033.2361488678393 363.382133129589Q1044.4023825507402 350.7461209728876 1062.488823214452 350.7461209728876L1062.488823214452 350.7461209728876Q1070.7154999497518 350.7461209728876 1075.7168294786563 352.8078935541911L1075.7168294786563 352.8078935541911Q1084.392605192062 356.339444609295 1084.392605192062 359.4218966862933L1084.392605192062 359.4218966862933Q1084.392605192062 361.7694595263913 1072.266932783208 361.85111388604685Q1060.1412603743538 361.91235465578853 1051.9758244087957 370.2206857507441Q1043.8103884432373 378.5290168456997 1043.8103884432373 391.1650290024011L1043.8103884432373 391.1650290024011Q1043.8103884432373 397.7790321345034 1047.7093841167914 402.27002191556045Q1051.6083797903455 406.7405981067036 1058.732722670295 406.7405981067036Q1065.8570655502447 406.7405981067036 1070.5726048203546 403.8010411591026L1070.5726048203546 403.8010411591026Q1060.1412603743538 396.7583526388086 1060.1412603743538 383.36703765529296L1060.1412603743538 383.36703765529296Q1059.9779516550427 376.32434913499895 1065.203830673 370.5064760095387Q1070.4297096909575 364.7090164739923 1078.5747320666019 364.6273621143367Q1086.74016803216 364.566121344595 1090.271719087264 369.11835189539374Q1093.7828565524542 373.6705824461925 1093.7828565524542 380.7949253261421Q1093.7828565524542 387.93968179600563 1090.4146142166612 395.86015468259717L1090.4146142166612 395.86015468259717L1091.2923985829589 395.86015468259717Q1097.7635065856637 395.7172595531999 1102.4586322658597 391.3079241317984L1102.4586322658597 391.3079241317984Q1104.2346145883687 389.5523553992034 1105.4798435731163 388.22547205480015Q1106.725072557864 386.89858871039695 1108.0519559022673 386.89858871039695L1108.0519559022673 386.89858871039695Q1110.1137284835706 386.89858871039695 1110.1137284835706 391.75702310990414L1110.1137284835706 391.75702310990414Q1110.1137284835706 400.71858908210436 1104.8061951059578 405.2095788631614Q1099.5190753182587 409.6801550543046 1093.1296216752094 409.6801550543046Q1086.74016803216 409.6801550543046 1082.3308326107585 408.8023706880071ZM1081.0039492663554 391.75702310990414L1081.0039492663554 391.75702310990414Q1083.4944072358505 386.46990332220514 1083.4944072358505 381.46857379330066Q1083.4944072358505 376.46724426439624 1080.269060029455 376.46724426439624L1080.269060029455 376.46724426439624Q1078.942176685052 376.46724426439624 1078.0643923187545 378.3861217163024Q1077.1866079524568 380.2845855782947 1077.1866079524568 382.0605679008036L1077.1866079524568 382.0605679008036Q1077.1866079524568 387.93968179600563 1081.0039492663554 391.75702310990414ZM1114.523063904972 415.7021640789038Q1117.462620852573 408.21037658050415 1123.341734747775 403.2907014112552Q1129.220848642977 398.37102624200634 1136.1206420338738 398.37102624200634Q1143.0204354247708 398.37102624200634 1143.0204354247708 406.00570886980336Q1143.0204354247708 413.66080508751423 1138.1007602555217 419.6828141121135Q1133.1810850862728 425.7048231367127 1128.1797555573683 425.5619280073155L1128.1797555573683 425.5619280073155Q1119.3610847145653 425.5619280073155 1114.523063904972 415.7021640789038L1114.523063904972 415.7021640789038ZM1185.9502150136934 405.86281374040607Q1181.6837747216891 412.6197120019056 1178.0909828968433 417.2535969123599Q1174.4777774820839 421.88748182281427 1172.2731097713831 421.88748182281427L1172.2731097713831 421.88748182281427Q1168.0066694793788 421.88748182281427 1164.6384271435861 419.96860437090805Q1161.2497712178795 418.07014050891576 1161.3926663472769 416.00836792761226L1161.3926663472769 416.00836792761226Q1161.3926663472769 415.865472798215 1163.0257535403885 413.9465953463088L1163.0257535403885 413.9465953463088Q1172.4160049007805 402.63746653401057 1181.3979844628946 391.0221338730039L1181.3979844628946 391.0221338730039Q1178.2951187959825 379.5496963413945 1175.6617656970898 376.32434913499895L1175.6617656970898 376.32434913499895Q1174.4777774820839 374.85457066119847 1173.0079990082834 374.99746579059575L1173.0079990082834 374.99746579059575Q1167.43508896179 374.99746579059575 1164.9242174023807 371.9150137135975Q1162.4337594328854 368.8325616365992 1162.4337594328854 365.72969596968704L1162.4337594328854 365.72969596968704Q1162.4337594328854 360.58547131138533 1166.618545365234 354.7063574161834Q1170.8033312975826 348.82724352098137 1176.02921031554 348.82724352098137Q1181.2346757435835 348.82724352098137 1186.6851042505937 354.5022215170444Q1192.1151191676897 360.1567859231935 1196.381559459694 369.40414215418826L1196.381559459694 369.40414215418826L1196.8306584377997 370.8739206279888Q1198.7291222997922 368.5263577878908 1200.9337900104929 366.0358998183955L1200.9337900104929 366.0358998183955Q1208.8746764869984 356.17613588998387 1210.3444549607987 353.39988766169404Q1211.8142334345991 350.6032258434903 1213.5698021671942 350.6032258434903L1213.5698021671942 350.6032258434903Q1217.4075570710067 350.6032258434903 1221.2248983849051 352.21589944668807Q1225.0422396988038 353.82857304988585 1224.960585339148 356.62523486808954Q1224.8993445694064 359.4218966862933 1223.2050166065533 361.4020149079412Q1221.5106886436997 363.382133129589 1218.4282365667016 366.09714058813717Q1215.3457844897032 368.8325616365992 1210.9364490683017 372.93569320929225Q1206.5271136469003 377.0592383718992 1201.07668513989 383.959031762796L1201.07668513989 383.959031762796Q1204.9144400437026 394.98237031629964 1206.384218517503 398.0648223932979L1206.384218517503 398.0648223932979Q1209.7524608532958 404.8421342447113 1212.6920178008968 404.8421342447113L1212.6920178008968 404.8421342447113Q1214.8966855115975 404.8421342447113 1218.1424463079068 402.0454724265076Q1221.3677935143025 399.24881060830387 1224.593140720698 395.94180904225277Q1227.8389015170073 392.6348074762016 1230.5539089755557 389.8381456579979Q1233.2689164341036 387.04148383979424 1234.3100095197124 387.04148383979424L1234.3100095197124 387.04148383979424Q1236.351368511102 387.04148383979424 1236.351368511102 392.04281336869866L1236.351368511102 392.04281336869866Q1236.351368511102 402.33126268530214 1226.0016784247568 412.0277178944026Q1215.6315747484978 421.744586693417 1203.8733469580936 421.744586693417L1203.8733469580936 421.744586693417Q1198.3004369116004 421.744586693417 1193.9523422599405 417.2535969123599Q1189.6246611981946 412.76260713130284 1185.9502150136934 405.86281374040607L1185.9502150136934 405.86281374040607ZM1268.5435998053154 410.5579394206021L1268.5435998053154 410.5579394206021Q1261.1947074363131 420.7034936078083 1248.8444855384062 420.7034936078083L1248.8444855384062 420.7034936078083Q1238.8622400705112 420.7034936078083 1232.9014718156536 416.51870767545967Q1226.96111715071 412.33392174311103 1226.96111715071 403.2090470515996L1226.96111715071 403.2090470515996Q1226.96111715071 399.3917057377011 1228.0634510060604 396.1663585313056Q1229.1657848614107 392.9205977349962 1231.656242830906 388.22547205480015L1231.656242830906 388.22547205480015L1235.9226831229103 353.39988766169404Q1240.474913673709 349.86833660659005 1248.272905020817 349.86833660659005L1248.272905020817 349.86833660659005Q1254.8869081529192 349.86833660659005 1255.7646925192166 358.68700744939304L1255.7646925192166 358.68700744939304Q1256.0504827780114 361.3203605482856 1256.0504827780114 364.9335659630451Q1256.0504827780114 368.5263577878908 1254.8869081529192 372.50700782110044L1254.8869081529192 372.50700782110044Q1249.0077942577173 392.7777026055989 1249.1506893871147 399.6979095864096L1249.1506893871147 399.6979095864096Q1249.1506893871147 404.9850293741086 1255.3155935411112 404.9850293741086Q1261.5009112850216 404.9850293741086 1264.4404682326226 401.0043793408989Q1267.3800251802236 397.04414289760314 1269.4213841716132 391.1650290024011L1269.4213841716132 391.1650290024011Q1273.2591390754255 374.85457066119847 1276.5661406414765 364.25991749588655Q1279.8731422075275 353.68567792048856 1280.7509265738252 351.6239053391851L1280.7509265738252 351.6239053391851Q1282.2207050476259 348.0923542840811 1286.3238366203186 347.9494591546839L1286.3238366203186 347.9494591546839Q1290.4473817829257 348.0923542840811 1294.121827967427 353.76733228014416Q1297.7962741519282 359.4218966862933 1297.7962741519282 362.50434876329155L1297.7962741519282 362.50434876329155Q1297.5104838931336 372.79279807989496 1285.0173668658294 414.3956943244145L1285.0173668658294 414.3956943244145Q1294.5709269455326 406.8834932361009 1303.9611783059247 396.0234634019084L1303.9611783059247 396.0234634019084Q1307.2069391022342 392.18570849809595 1309.4116068129347 389.6135961689451Q1311.6162745236356 387.04148383979424 1312.9431578680387 387.04148383979424L1312.9431578680387 387.04148383979424Q1314.9845168594284 387.04148383979424 1314.9845168594284 391.75702310990414L1314.9845168594284 391.75702310990414Q1314.9845168594284 401.0043793408989 1304.6348267730832 413.35460123880586Q1294.2647230968241 425.7048231367127 1279.281148100025 432.6046165276095L1279.281148100025 432.6046165276095Q1277.5051657775157 438.4837304228115 1275.4638067861263 443.79126380042436Q1273.4020342048227 449.07838358812336 1270.1562734085132 453.03862003141916L1270.1562734085132 453.03862003141916Q1263.1135848882193 461.57150061542757 1248.701590409009 461.57150061542757L1248.701590409009 461.57150061542757Q1239.0051351999086 461.57150061542757 1232.1665825787534 455.97817697902013Q1225.3280299575983 450.40526693252656 1225.3280299575983 442.01528147791544L1225.3280299575983 442.01528147791544Q1225.3280299575983 437.32015579771945 1228.4921363942522 434.5234939795157Q1231.656242830906 431.72683216131196 1237.1679121076577 429.88960906906135Q1242.6795813844096 428.05238597681074 1250.028473753412 426.66426186266585Q1257.3773661224145 425.25572415860705 1265.7469379871118 423.21436516721747L1265.7469379871118 423.21436516721747Q1267.8087105684153 414.3956943244145 1268.5435998053154 410.5579394206021ZM1248.5586952796116 450.24195821321547L1248.5586952796116 450.24195821321547Q1255.4584886705084 450.24195821321547 1261.051812306916 438.1979401640169L1261.051812306916 438.1979401640169Q1255.7646925192166 439.21861965971175 1251.64114735661 439.749372997473Q1247.5380157839168 440.2597127453204 1244.5984588363158 440.68839813351224L1244.5984588363158 440.68839813351224Q1238.7193449411138 441.5865960897236 1238.8622400705112 443.79126380042436L1238.8622400705112 443.79126380042436Q1238.8622400705112 446.5675120287142 1242.1692416365622 448.4863894806204Q1245.4762432026134 450.40526693252656 1248.5586952796116 450.24195821321547ZM1350.8511943381432 357.3601241049898L1350.8511943381432 357.3601241049898Q1368.2027457649547 357.3601241049898 1368.2027457649547 363.6883369782975L1368.2027457649547 363.6883369782975Q1368.2027457649547 367.19947444348753 1365.6918742055454 375.2832560493903L1365.6918742055454 375.2832560493903Q1352.463867941341 397.18703802700037 1338.9500714183418 406.3119127185118L1338.9500714183418 406.3119127185118Q1345.4211794210469 407.92458632170957 1351.3002933162488 407.92458632170957Q1357.1794072114508 407.92458632170957 1362.241977510097 404.67882552540016Q1367.3249613986573 401.4534783190046 1371.1423027125556 397.49324187570886Q1374.959644026454 393.51259184249915 1377.531756355605 390.28724463610365Q1380.1038686847558 387.04148383979424 1381.7165422879534 387.04148383979424L1381.7165422879534 387.04148383979424Q1383.7783148692572 387.04148383979424 1383.7783148692572 392.6348074762016Q1383.7783148692572 398.2281311126091 1380.5529676628614 403.73980038936094Q1377.307206866552 409.25146966611277 1371.5709881007474 413.4974963682031L1371.5709881007474 413.4974963682031Q1358.9349759440458 422.90816131850903 1341.1547391290428 422.90816131850903L1341.1547391290428 422.90816131850903Q1333.9487418894375 422.90816131850903 1328.6616221017387 421.0709382262584Q1323.3745023140395 419.2337151340078 1321.0881802436834 417.62104153081003Q1318.8222717632407 416.00836792761226 1318.8222717632407 413.13005174975297Q1318.8222717632407 410.2721491618076 1319.8429512589355 405.57702348161155L1319.8429512589355 405.57702348161155Q1322.0476189696365 402.47415781469937 1326.967294138885 398.79971163019815Q1331.886969308134 395.1252654456969 1336.827058067297 391.1650290024011Q1341.7467332365459 387.2047925591054 1345.4824201907886 383.22414252589573Q1349.2385207349453 379.26390608259993 1349.2385207349453 375.4465647687014L1349.2385207349453 375.4465647687014Q1349.2385207349453 373.97678629490093 1342.3387273440485 373.97678629490093L1342.3387273440485 373.97678629490093L1318.0873825263407 375.2832560493903Q1314.2496276225281 375.2832560493903 1312.4124045302774 373.01734756894786Q1310.575181438027 370.7310254985915 1310.575181438027 367.79146855099054L1310.575181438027 367.79146855099054Q1310.575181438027 361.03457028949106 1315.6581653265869 355.8903456311893Q1320.7207356252331 350.7461209728876 1328.9474123605332 350.6032258434903L1328.9474123605332 350.6032258434903Q1332.4789634156368 350.6032258434903 1337.3373978151444 352.9507886835883Q1342.1754186247374 355.29835152368634 1345.0537348025969 356.339444609295Q1347.9116373905422 357.3601241049898 1350.8511943381432 357.3601241049898Z " fill="#ffffff" transform="matrix(0.6323267153097165,0,0,0.6323267153097165,0,55.56050967667478)"/></g></svg>